<svg width="842" height="406" viewBox="0 0 842 406" fill="none" xmlns="http://www.w3.org/2000/svg">
<g clip-path="url(#clip0_165_96)">
<path d="M12.8207 276.912C-6.11504 235.027 -5.41684 181.937 23.9707 146.593C33.8025 195.603 60.653 239.556 99.7715 270.675C114.901 282.621 132.973 294.333 137.107 313.163C139.679 324.879 136.033 337.272 129.731 347.478C123.428 357.684 114.643 366.079 105.958 374.353L104.983 377.184C67.1914 351.019 31.7564 318.796 12.8207 276.912Z" fill="#F0F0F0"/>
<path d="M24.7886 147.104C18.0254 184.138 23.0497 223.572 39.4884 257.502C43.0424 264.838 47.2861 271.97 52.9678 277.87C58.5501 283.578 65.5591 287.687 73.2667 289.77C80.4141 291.857 87.9669 293.164 94.4827 296.952C101.351 300.945 105.613 307.644 107.273 315.327C109.305 324.727 107.837 334.297 106.077 343.605C104.123 353.94 101.93 364.644 104.761 375.033C105.105 376.292 103.131 376.751 102.789 375.494C97.8618 357.418 107.441 339.591 106.102 321.417C105.477 312.937 102.293 304.594 95.022 299.681C88.6639 295.385 80.8765 294.03 73.6213 291.98C66.0032 289.827 59.1616 286.538 53.3399 281.083C47.3846 275.502 42.8531 268.521 39.1271 261.309C30.8 244.89 25.1062 227.265 22.2542 209.078C18.8841 188.339 19.0865 167.177 22.8526 146.506C23.0862 145.227 25.0207 145.833 24.7886 147.104L24.7886 147.104Z" fill="white"/>
<path d="M33.5632 246.755C27.4286 248.721 20.7949 248.443 14.8467 245.969C8.89857 243.496 4.02331 238.988 1.09162 233.252C0.502397 232.09 2.28149 231.119 2.87149 232.284C5.59163 237.63 10.1334 241.828 15.677 244.12C21.2206 246.412 27.4009 246.647 33.1025 244.782C34.342 244.379 34.7956 246.354 33.5632 246.755L33.5632 246.755Z" fill="white"/>
<path d="M69.5033 289.19C75.6333 277.535 77.1452 263.998 73.7376 251.278C73.399 250.018 75.3722 249.558 75.7104 250.817C79.2318 264.06 77.6297 278.145 71.224 290.259C70.6127 291.413 68.8953 290.338 69.5033 289.19Z" fill="white"/>
<path d="M21.4886 188.997C24.0207 188.731 26.4471 187.84 28.5499 186.404C30.6526 184.969 32.3659 183.033 33.5358 180.772C34.1322 179.611 35.8491 180.687 35.2565 181.841C33.9524 184.334 32.0576 186.469 29.7379 188.06C27.4182 189.651 24.7441 190.65 21.9493 190.97C21.6884 191.022 21.4174 190.973 21.1914 190.832C20.9654 190.692 20.8013 190.471 20.7326 190.214C20.6729 189.952 20.7188 189.678 20.8604 189.45C21.002 189.222 21.2277 189.059 21.4886 188.997Z" fill="white"/>
<path d="M179.601 147.003C179.25 147.739 178.898 148.475 178.554 149.226C173.876 159.143 170.011 169.423 166.998 179.966C166.752 180.777 166.515 181.603 166.293 182.42C159.303 207.898 157.105 234.451 159.809 260.731C160.895 271.187 162.775 281.546 165.432 291.717C169.102 305.764 174.2 320.702 173.05 334.728C172.946 336.193 172.752 337.65 172.468 339.09L108.513 378.154C108.323 378.17 108.142 378.2 107.951 378.217L105.469 379.893C105.295 379.378 105.126 378.84 104.952 378.325C104.85 378.027 104.763 377.72 104.661 377.422C104.597 377.22 104.534 377.018 104.465 376.839C104.444 376.772 104.423 376.705 104.411 376.652C104.342 376.474 104.297 376.301 104.237 376.137C103.284 373.133 102.35 370.118 101.435 367.09C101.427 367.075 101.427 367.075 101.432 367.052C94.523 343.964 89.481 320.096 88.222 296.222C88.1844 295.503 88.1371 294.771 88.1286 294.035C87.6208 283.27 87.9937 272.482 89.2434 261.778C89.9466 255.919 90.946 250.1 92.2376 244.342C95.6037 229.471 101.288 215.222 109.082 202.117C124.623 175.996 148.345 155.135 177.378 147.56C178.12 147.367 178.85 147.182 179.601 147.003Z" fill="#F0F0F0"/>
<path d="M179.953 147.903C152.256 173.4 132.526 207.911 125.223 244.9C123.644 252.897 122.739 261.146 123.723 269.278C124.743 277.196 127.866 284.697 132.765 291.001C137.216 296.971 142.459 302.561 145.381 309.509C148.461 316.832 147.83 324.747 144.531 331.881C140.493 340.61 133.56 347.367 126.551 353.739C118.768 360.815 110.572 368.04 106.578 378.041C106.094 379.252 104.242 378.431 104.725 377.221C111.675 359.822 130.056 351.355 139.929 336.038C144.536 328.891 147.016 320.313 144.169 312.012C141.679 304.754 136.277 298.984 131.718 292.979C126.932 286.673 123.449 279.928 122.085 272.067C120.69 264.026 121.275 255.724 122.643 247.722C125.879 229.599 131.945 212.098 140.617 195.859C150.413 177.272 163.316 160.496 178.768 146.26C179.724 145.379 180.904 147.028 179.953 147.903L179.953 147.903Z" fill="white"/>
<path d="M126.963 232.752C120.881 230.628 115.752 226.412 112.492 220.855C109.232 215.299 108.053 208.765 109.166 202.42C109.395 201.137 111.4 201.434 111.17 202.718C110.123 208.625 111.222 214.711 114.268 219.879C117.314 225.047 122.108 228.955 127.783 230.899C129.015 231.323 128.188 233.173 126.963 232.752H126.963Z" fill="white"/>
<path d="M130.11 288.271C142.022 282.656 151.379 272.758 156.317 260.55C156.805 259.34 158.657 260.162 158.169 261.37C153.007 274.064 143.249 284.345 130.84 290.161C129.657 290.715 128.933 288.822 130.11 288.271H130.11Z" fill="white"/>
<path d="M152.096 179.365C154.278 180.677 156.752 181.427 159.295 181.546C161.838 181.666 164.371 181.152 166.667 180.051C167.843 179.483 168.565 181.376 167.397 181.941C164.855 183.146 162.057 183.71 159.247 183.584C156.437 183.458 153.7 182.645 151.276 181.218C151.036 181.102 150.85 180.9 150.754 180.652C150.658 180.403 150.66 180.128 150.76 179.881C150.87 179.637 151.072 179.445 151.322 179.348C151.572 179.252 151.85 179.258 152.096 179.365H152.096Z" fill="white"/>
<path d="M561.393 138.458L561.121 137.899C561.038 137.729 552.893 120.699 557.434 103.913C561.975 87.1265 577.593 76.5256 577.749 76.4206L578.265 76.0756L578.537 76.6346C578.62 76.8046 586.765 93.8345 582.224 110.621C577.683 127.407 562.064 138.009 561.907 138.113L561.393 138.458ZM581.57 108.723C584.619 94.409 563.384 88.6969 558.938 102.64C558.775 103.151 558.622 103.668 558.48 104.192C554.514 118.848 560.471 133.742 561.83 136.837C564.564 134.848 577.215 124.993 581.181 110.337C581.326 109.803 581.455 109.265 581.57 108.723V108.723Z" fill="#3F3D56"/>
<path d="M540.39 110.48C544.931 127.267 560.49 137.663 560.49 137.663C560.49 137.663 568.682 120.843 564.141 104.056C559.6 87.2685 544.041 76.8726 544.041 76.8726C544.041 76.8726 535.849 93.6925 540.39 110.48Z" fill="#FFDD00"/>
<path d="M561.641 138.222L561.021 138.188C560.832 138.178 541.992 137.017 529.529 124.888C517.066 112.759 515.4 93.9554 515.384 93.7664L515.333 93.1484L515.953 93.1824C516.142 93.1924 534.981 94.3535 547.443 106.482C559.905 118.611 561.574 137.415 561.589 137.604L561.641 138.222ZM530.285 124.113C541.167 134.713 557.073 136.74 560.44 137.059C560.031 133.702 557.571 117.859 546.688 107.259C546.299 106.881 545.904 106.513 545.503 106.156C534.573 96.4254 519.214 112.157 529.127 122.921C529.503 123.329 529.889 123.727 530.285 124.113V124.113Z" fill="#3F3D56"/>
<path d="M575.029 106.871C562.568 119.001 561.046 137.648 561.046 137.648C561.046 137.648 579.727 136.628 592.188 124.498C604.649 112.368 606.173 93.7205 606.173 93.7205C606.173 93.7205 587.49 94.7405 575.029 106.871Z" fill="#3F3D56"/>
<path d="M560.785 74.1015C565.273 74.1015 568.911 70.4633 568.911 65.9755C568.911 61.4876 565.273 57.8495 560.785 57.8495C556.298 57.8495 552.659 61.4876 552.659 65.9755C552.659 70.4633 556.298 74.1015 560.785 74.1015Z" fill="#FFDD00"/>
<path d="M546.041 134.311H577.041C580.754 134.311 584.314 135.786 586.94 138.411C589.566 141.037 591.041 144.598 591.041 148.311V148.311C591.041 156.043 586.659 184.087 578.927 184.087L540.927 185.087C533.195 185.087 532.041 156.043 532.041 148.311C532.041 144.598 533.515 141.037 536.141 138.411C538.767 135.786 542.327 134.311 546.041 134.311V134.311Z" fill="#E6E6E6"/>
<path d="M479.883 133.905C479.419 134.205 478.979 134.542 478.567 134.911L430.513 122.66L427.235 111.068L409.091 113.729L412.9 134.816C413.208 136.52 414.06 138.078 415.329 139.256C416.597 140.434 418.214 141.169 419.935 141.35L476.046 147.259C476.961 149.186 478.44 150.788 480.288 151.853C482.135 152.918 484.263 153.396 486.388 153.222C488.514 153.048 490.536 152.231 492.185 150.88C493.835 149.529 495.034 147.707 495.623 145.658C496.213 143.608 496.164 141.428 495.483 139.407C494.803 137.386 493.523 135.62 491.815 134.344C490.106 133.068 488.05 132.343 485.919 132.264C483.788 132.186 481.683 132.758 479.885 133.905H479.883Z" fill="#FFB6B6"/>
<path d="M405.848 124.252L418.228 134.932L435.548 149.862L443.198 110.722L443.998 106.652L444.628 103.422L427.078 72.8516L412.448 73.6916L411.448 73.7516L411.428 73.9716L411.198 76.0216L408.198 103.002L408.128 103.652L405.848 124.252Z" fill="#E6E6E6"/>
<path d="M486.766 391.926H499.026L504.859 344.638H486.764L486.766 391.926Z" fill="#FFB6B6"/>
<path d="M358.766 392.926H371.026L376.859 345.638H358.764L358.766 392.926Z" fill="#FFB6B6"/>
<path d="M348.967 372.102L381.967 377.102L429.977 214.622L480.967 378.102L517.967 373.102L469.967 183.102V168.102L463.467 145.602L464.147 139.512L468.877 96.9216L470.927 78.4516L471.06 77.2586C471.172 76.2573 470.907 75.2503 470.316 74.4338C469.726 73.6173 468.853 73.0497 467.867 72.8416L452.467 69.6016H427.302L412.452 73.6916L411.432 73.9716L410.971 74.1016L411.202 76.0216L414.682 105.202L414.872 106.802L418.232 134.932L418.971 141.102C389.971 162.102 388.971 183.102 388.971 183.102L348.967 372.102Z" fill="#2F2E41"/>
<path d="M442.925 56.9515C456.49 56.9515 467.486 45.9551 467.486 32.3905C467.486 18.8258 456.49 7.82947 442.925 7.82947C429.361 7.82947 418.365 18.8258 418.365 32.3905C418.365 45.9551 429.361 56.9515 442.925 56.9515Z" fill="#FFB6B6"/>
<path d="M417.128 135.458L416.22 142.399L464.806 148.754L465.714 141.813L417.128 135.458Z" fill="#FFDD00"/>
<path d="M530.883 143.905C530.419 144.205 529.979 144.542 529.567 144.911L481.513 132.66L478.235 121.068L460.091 123.729L463.9 144.816C464.208 146.52 465.06 148.078 466.329 149.256C467.597 150.434 469.214 151.169 470.935 151.35L527.046 157.259C527.961 159.186 529.44 160.788 531.288 161.853C533.135 162.918 535.263 163.396 537.388 163.222C539.514 163.048 541.536 162.231 543.185 160.88C544.835 159.529 546.034 157.707 546.623 155.658C547.213 153.608 547.164 151.428 546.483 149.407C545.803 147.386 544.523 145.62 542.815 144.344C541.106 143.068 539.05 142.343 536.919 142.264C534.788 142.186 532.683 142.758 530.885 143.905H530.883Z" fill="#FFB6B6"/>
<path d="M456.967 79.1015L465.467 72.6015C467.767 71.7295 470.914 74.2065 471.467 76.6015L483.467 125.601L458.467 143.601L454.967 138.101L456.967 79.1015Z" fill="#E6E6E6"/>
<path d="M461.745 12.0555C466.338 11.4925 471.379 11.8905 474.959 14.8225C478.539 17.7545 479.695 23.8505 476.305 27.0005C473.305 29.7895 468.612 29.1335 464.592 29.9265C461.13 30.7025 458.027 32.6178 455.782 35.3658C453.537 38.1138 452.278 41.5356 452.208 45.0835C452.268 55.2575 462.032 62.9625 463.786 72.9835C464.986 79.8235 462.098 87.0215 457.111 91.8535C452.124 96.6855 445.268 99.2965 438.36 100.003C431.452 100.71 424.467 99.6305 417.754 97.8555C411.013 96.0735 404.376 93.5445 398.72 89.4675C393.064 85.3905 388.427 79.6415 386.611 72.9095C384.795 66.1775 386.099 58.4585 390.779 53.2895C396.138 47.3705 405.053 45.3355 409.689 38.8335C414.889 31.5455 412.962 21.1675 417.168 13.2665C419.976 7.99149 425.293 4.3935 430.96 2.4975C436.627 0.601498 442.679 0.227495 448.652 0.044495C451.792 -0.055505 455.027 -0.0844985 457.952 1.0605C460.877 2.2055 463.452 4.81349 463.6 7.95149C463.748 11.0895 461.745 12.0555 461.745 12.0555Z" fill="#2F2E41"/>
<path d="M187.521 403.76H85.3696C83.5429 403.757 81.7916 403.031 80.5 401.739C79.2084 400.447 78.4819 398.696 78.48 396.869V333.181C78.4869 327.073 80.9165 321.217 85.2358 316.898C89.5551 312.579 95.4112 310.149 101.52 310.142H187.521C189.348 310.144 191.099 310.871 192.39 312.163C193.682 313.454 194.409 315.205 194.411 317.032V396.869C194.409 398.696 193.682 400.447 192.391 401.739C191.099 403.031 189.348 403.757 187.521 403.76V403.76ZM101.52 312.142C95.9415 312.149 90.5938 314.367 86.6495 318.312C82.7052 322.256 80.4864 327.603 80.48 333.181V396.869C80.4814 398.165 80.9969 399.408 81.9136 400.325C82.8303 401.242 84.0731 401.758 85.3696 401.76H187.521C188.817 401.758 190.06 401.242 190.977 400.325C191.894 399.408 192.409 398.165 192.411 396.869V317.032C192.409 315.736 191.894 314.493 190.977 313.576C190.06 312.659 188.817 312.144 187.521 312.142H101.52Z" fill="#3F3D56"/>
<path d="M104.899 314.674C99.2917 314.68 93.9159 316.91 89.951 320.875C85.9861 324.84 83.7558 330.216 83.7495 335.823V394.228C83.7511 395.554 84.2784 396.825 85.2157 397.762C86.153 398.699 87.4239 399.227 88.7495 399.228H184.142C185.467 399.227 186.738 398.699 187.675 397.762C188.613 396.825 189.14 395.554 189.142 394.228V319.674C189.14 318.348 188.613 317.077 187.675 316.14C186.738 315.202 185.467 314.675 184.142 314.674H104.899Z" fill="#FFDD00"/>
<path d="M143.795 333.75H129.629C128.966 333.75 128.331 333.486 127.862 333.018C127.393 332.549 127.13 331.913 127.129 331.25V308.173H146.295V331.25C146.294 331.913 146.031 332.549 145.562 333.018C145.093 333.486 144.458 333.75 143.795 333.75V333.75Z" fill="#3F3D56"/>
<path d="M711.105 288.377L715.479 276.715L715.635 276.626L750.873 256.49C751.253 256.274 751.663 256.118 752.091 256.028C753.072 255.821 754.095 255.973 754.974 256.456C755.853 256.939 756.53 257.72 756.883 258.659C757.235 259.598 757.239 260.633 756.895 261.574C756.55 262.516 755.879 263.304 755.004 263.794L711.105 288.377Z" fill="#3F3D56"/>
<path d="M581.522 288.376L537.628 263.795C536.752 263.305 536.082 262.518 535.737 261.576C535.392 260.634 535.396 259.599 535.749 258.66C536.101 257.721 536.779 256.939 537.658 256.456C538.537 255.973 539.561 255.821 540.542 256.028C540.969 256.118 541.38 256.274 541.759 256.49L577.154 276.715L581.522 288.376Z" fill="#3F3D56"/>
<path d="M714.607 289.825H578.021L566.533 236.212H726.095L714.607 289.825Z" fill="#3F3D56"/>
<path d="M719.106 285.602H573.524L563.509 239.98C563.205 238.592 563.215 237.152 563.54 235.768C563.865 234.384 564.496 233.091 565.387 231.983C566.278 230.875 567.406 229.981 568.689 229.367C569.971 228.752 571.374 228.433 572.796 228.433H719.834C721.255 228.433 722.659 228.752 723.941 229.367C725.223 229.981 726.351 230.875 727.242 231.983C728.133 233.091 728.764 234.384 729.089 235.768C729.414 237.152 729.425 238.592 729.12 239.98L719.106 285.602ZM575.132 283.602H717.497L727.167 239.551C727.407 238.454 727.399 237.317 727.143 236.225C726.886 235.132 726.388 234.11 725.684 233.235C724.98 232.361 724.09 231.655 723.077 231.17C722.065 230.685 720.956 230.433 719.834 230.433H572.796C571.673 230.433 570.565 230.685 569.552 231.17C568.54 231.655 567.649 232.361 566.945 233.236C566.242 234.111 565.743 235.132 565.487 236.225C565.23 237.318 565.222 238.455 565.462 239.552L575.132 283.602Z" fill="#3F3D56"/>
<path opacity="0.1" d="M714.607 289.825H578.021L566.533 236.212H726.095L714.607 289.825Z" fill="black"/>
<path d="M713.284 403.91H579.345C577.528 403.908 575.786 403.185 574.501 401.901C573.217 400.616 572.494 398.874 572.492 397.057V282.533H720.137V397.057C720.135 398.874 719.412 400.616 718.128 401.901C716.843 403.185 715.101 403.908 713.284 403.91V403.91ZM574.492 284.533V397.057C574.493 398.344 575.005 399.577 575.915 400.487C576.825 401.397 578.058 401.908 579.345 401.91H713.284C714.571 401.908 715.804 401.397 716.714 400.487C717.624 399.577 718.136 398.344 718.137 397.057V284.533H574.492Z" fill="#3F3D56"/>
<path d="M577.884 287.132V393.81C577.885 395.268 578.465 396.666 579.496 397.697C580.527 398.728 581.925 399.308 583.384 399.31H709.245C710.704 399.308 712.101 398.728 713.133 397.697C714.164 396.666 714.744 395.268 714.745 393.81V287.132H577.884Z" fill="#3F3D56"/>
<path d="M726.595 236.711H566.033V236.211C566.035 234.507 566.713 232.873 567.918 231.668C569.123 230.463 570.757 229.786 572.461 229.784H720.167C721.871 229.786 723.505 230.463 724.71 231.668C725.915 232.873 726.593 234.507 726.595 236.211V236.711Z" fill="#FFDD00"/>
<path d="M221.806 332.991C216.879 332.997 212.154 334.956 208.67 338.441C205.185 341.925 203.225 346.649 203.22 351.577V394.23C203.221 395.556 203.749 396.827 204.686 397.764C205.623 398.701 206.894 399.229 208.22 399.23H280.887C282.212 399.229 283.483 398.701 284.421 397.764C285.358 396.827 285.885 395.556 285.887 394.23V337.991C285.885 336.665 285.358 335.394 284.421 334.457C283.483 333.52 282.212 332.993 280.887 332.991H221.806Z" fill="#3F3D56"/>
<path d="M297.17 328.724H223.725C221.861 328.722 220.075 327.981 218.757 326.664C217.439 325.346 216.698 323.56 216.695 321.696V260.047C216.697 258.183 217.439 256.396 218.756 255.078C220.074 253.761 221.861 253.019 223.725 253.017H289.265C294.871 253.024 300.246 255.253 304.21 259.218C308.175 263.182 310.404 268.557 310.411 274.163V315.484C310.407 318.994 309.01 322.36 306.528 324.842C304.046 327.324 300.68 328.72 297.17 328.724ZM223.725 255.017C222.391 255.019 221.113 255.549 220.17 256.492C219.227 257.435 218.697 258.713 218.695 260.047V321.696C218.697 323.029 219.227 324.307 220.17 325.25C221.113 326.193 222.391 326.723 223.725 326.724H297.17C300.15 326.721 303.007 325.536 305.115 323.429C307.222 321.321 308.407 318.464 308.411 315.484V274.163C308.405 269.087 306.386 264.221 302.797 260.631C299.207 257.042 294.341 255.023 289.265 255.017L223.725 255.017Z" fill="#3F3D56"/>
<path d="M284.381 403.964H204.725C202.861 403.962 201.075 403.22 199.757 401.903C198.439 400.585 197.698 398.799 197.695 396.935V348.873C197.701 343.407 199.875 338.167 203.74 334.302C207.605 330.437 212.845 328.263 218.311 328.257H284.381C286.245 328.259 288.032 329 289.349 330.318C290.667 331.636 291.409 333.422 291.411 335.286V396.935C291.408 398.799 290.667 400.585 289.349 401.903C288.031 403.22 286.245 403.962 284.381 403.964V403.964ZM218.311 330.257C213.376 330.262 208.644 332.226 205.154 335.716C201.664 339.206 199.701 343.937 199.695 348.873V396.935C199.697 398.269 200.227 399.547 201.17 400.489C202.113 401.432 203.391 401.962 204.725 401.964H284.381C285.715 401.962 286.993 401.432 287.936 400.489C288.879 399.547 289.409 398.269 289.411 396.935V335.286C289.409 333.953 288.879 332.674 287.936 331.731C286.993 330.788 285.715 330.258 284.381 330.257H218.311Z" fill="#3F3D56"/>
<path d="M227.22 257.752C225.894 257.753 224.623 258.281 223.686 259.218C222.749 260.155 222.221 261.426 222.22 262.752V318.991C222.221 320.317 222.749 321.587 223.686 322.525C224.623 323.462 225.894 323.989 227.22 323.991H293.675C296.648 323.988 299.498 322.805 301.599 320.703C303.701 318.601 304.884 315.752 304.887 312.779V276.868C304.881 271.8 302.865 266.941 299.281 263.357C295.697 259.773 290.838 257.757 285.77 257.752H227.22Z" fill="#E6E6E6"/>
<path d="M268.925 272.627H258.602C257.939 272.627 257.304 272.363 256.835 271.894C256.367 271.426 256.103 270.79 256.102 270.127V252.251H271.425V270.127C271.424 270.79 271.16 271.426 270.692 271.894C270.223 272.363 269.587 272.627 268.925 272.627Z" fill="#3F3D56"/>
<path d="M486.26 381.894L500.927 381.018V387.302L514.87 396.932C515.559 397.408 516.078 398.091 516.351 398.882C516.624 399.674 516.637 400.531 516.388 401.33C516.138 402.129 515.64 402.828 514.966 403.324C514.292 403.82 513.477 404.087 512.64 404.087H495.179L492.169 397.872L490.994 404.087H484.411L486.26 381.894Z" fill="#2F2E41"/>
<path d="M358.26 381.894L372.927 381.018V387.302L386.87 396.932C387.559 397.408 388.078 398.091 388.351 398.882C388.624 399.674 388.637 400.531 388.388 401.33C388.138 402.129 387.64 402.828 386.966 403.324C386.292 403.82 385.477 404.087 384.64 404.087H367.179L364.169 397.872L362.994 404.087H356.411L358.26 381.894Z" fill="#2F2E41"/>
<path d="M109.927 384.615H82.7493C82.4841 384.615 82.2297 384.509 82.0422 384.322C81.8546 384.134 81.7493 383.88 81.7493 383.615C81.7493 383.35 81.8546 383.095 82.0422 382.908C82.2297 382.72 82.4841 382.615 82.7493 382.615H109.927C110.192 382.615 110.446 382.72 110.634 382.908C110.821 383.095 110.927 383.35 110.927 383.615C110.927 383.88 110.821 384.134 110.634 384.322C110.446 384.509 110.192 384.615 109.927 384.615Z" fill="#3F3D56"/>
<path d="M229.927 382.615H202.749C202.484 382.615 202.23 382.509 202.042 382.322C201.855 382.134 201.749 381.88 201.749 381.615C201.749 381.35 201.855 381.095 202.042 380.908C202.23 380.72 202.484 380.615 202.749 380.615H229.927C230.192 380.615 230.446 380.72 230.634 380.908C230.821 381.095 230.927 381.35 230.927 381.615C230.927 381.88 230.821 382.134 230.634 382.322C230.446 382.509 230.192 382.615 229.927 382.615Z" fill="#FFDD00"/>
<path d="M605.927 375.087H578.749C578.484 375.087 578.23 374.982 578.042 374.794C577.855 374.607 577.749 374.353 577.749 374.087C577.749 373.822 577.855 373.568 578.042 373.38C578.23 373.193 578.484 373.087 578.749 373.087H605.927C606.192 373.087 606.446 373.193 606.634 373.38C606.821 373.568 606.927 373.822 606.927 374.087C606.927 374.353 606.821 374.607 606.634 374.794C606.446 374.982 606.192 375.087 605.927 375.087Z" fill="#FFDD00"/>
<path d="M616.927 365.087H589.749C589.484 365.087 589.23 364.982 589.042 364.794C588.855 364.607 588.749 364.353 588.749 364.087C588.749 363.822 588.855 363.568 589.042 363.38C589.23 363.193 589.484 363.087 589.749 363.087H616.927C617.192 363.087 617.446 363.193 617.634 363.38C617.821 363.568 617.927 363.822 617.927 364.087C617.927 364.353 617.821 364.607 617.634 364.794C617.446 364.982 617.192 365.087 616.927 365.087Z" fill="#FFDD00"/>
<path d="M565.927 171.087H538.749C538.484 171.087 538.23 170.982 538.042 170.795C537.855 170.607 537.749 170.353 537.749 170.087C537.749 169.822 537.855 169.568 538.042 169.38C538.23 169.193 538.484 169.087 538.749 169.087H565.927C566.192 169.087 566.446 169.193 566.634 169.38C566.821 169.568 566.927 169.822 566.927 170.087C566.927 170.353 566.821 170.607 566.634 170.795C566.446 170.982 566.192 171.087 565.927 171.087Z" fill="#FFDD00"/>
<path d="M248.927 310.615H221.749C221.484 310.615 221.23 310.509 221.042 310.322C220.855 310.134 220.749 309.88 220.749 309.615C220.749 309.35 220.855 309.095 221.042 308.908C221.23 308.72 221.484 308.615 221.749 308.615H248.927C249.192 308.615 249.446 308.72 249.634 308.908C249.821 309.095 249.927 309.35 249.927 309.615C249.927 309.88 249.821 310.134 249.634 310.322C249.446 310.509 249.192 310.615 248.927 310.615Z" fill="#3F3D56"/>
<path d="M248.927 302.615H221.749C221.484 302.615 221.23 302.509 221.042 302.322C220.855 302.134 220.749 301.88 220.749 301.615C220.749 301.35 220.855 301.095 221.042 300.908C221.23 300.72 221.484 300.615 221.749 300.615H248.927C249.192 300.615 249.446 300.72 249.634 300.908C249.821 301.095 249.927 301.35 249.927 301.615C249.927 301.88 249.821 302.134 249.634 302.322C249.446 302.509 249.192 302.615 248.927 302.615Z" fill="#3F3D56"/>
<path d="M651.875 253.315H641.553C640.89 253.314 640.255 253.051 639.786 252.582C639.317 252.113 639.054 251.478 639.053 250.815V232.939H654.375V250.815C654.374 251.478 654.111 252.113 653.642 252.582C653.173 253.051 652.538 253.314 651.875 253.315V253.315Z" fill="#FFDD00"/>
<path d="M841.458 403.087H5.45752V405.087H841.458V403.087Z" fill="#CCCCCC"/>
<path d="M249.925 347.41H239.602C238.939 347.409 238.304 347.145 237.835 346.677C237.367 346.208 237.103 345.573 237.102 344.91V327.034H252.425V344.91C252.424 345.573 252.16 346.208 251.692 346.677C251.223 347.145 250.587 347.409 249.925 347.41V347.41Z" fill="#FFDD00"/>
</g>
<defs>
<clipPath id="clip0_165_96">
<rect width="841.457" height="405.087" fill="white"/>
</clipPath>
</defs>
</svg>
