<svg width="886" height="558" viewBox="0 0 886 558" fill="none" xmlns="http://www.w3.org/2000/svg">
<g clip-path="url(#clip0_165_152)">
<path d="M681.591 421.111C718.017 330.044 706.998 228.357 660.019 150.259L168.245 218.351L639.521 120.134C440.898 -127.551 54.3078 36.7357 91.5732 349.455L681.591 421.111Z" fill="#E6E6E6"/>
<path d="M703.279 320.445H76.7532V515.54H703.279V320.445Z" fill="#FFDD00"/>
<path d="M251.485 296.652C257.106 301.018 259.162 302.427 260.359 302.248C318.359 319.138 267.513 338.931 239.333 305.333L251.485 296.652Z" fill="#FFB8B8"/>
<path d="M60.0991 475.093V514.747L88.6491 513.161L80.7191 471.921L60.0991 475.093Z" fill="#FFB8B8"/>
<path d="M218.713 475.093V514.747L190.162 513.161L198.093 471.921L218.713 475.093Z" fill="#FFB8B8"/>
<path d="M131.475 270.481L174.301 268.895C273.095 372.466 235.733 348.843 232.988 490.955L180.646 475.093L191.749 376.753C191.754 376.749 194.677 374.8 192.248 374.755C177.051 379.977 165.963 315.318 133.061 322.824C95.6206 321.033 89.5253 376.574 74.3741 376.753L85.4771 475.093L33.1344 490.955C27.2739 334.789 -1.44855 370.067 91.8217 268.895L131.475 270.481Z" fill="#2F2E41"/>
<path d="M68.0294 502.058C68.0294 502.058 61.6849 489.369 53.7542 495.713C45.8235 502.058 26.7898 521.091 26.7898 521.091C26.7898 521.091 -19.2084 541.711 9.3422 554.4C37.8927 567.09 61.6849 536.953 61.6849 536.953C88.8789 531.282 104.565 527.652 90.1431 497.989C81.9555 501.532 70.3688 505.634 68.0294 502.058Z" fill="#2F2E41"/>
<path d="M210.782 502.058C210.782 502.058 217.127 489.369 225.058 495.713C232.988 502.058 252.022 521.091 252.022 521.091C252.022 521.091 298.02 541.711 269.47 554.4C240.919 567.09 217.127 536.953 217.127 536.953C189.933 531.282 174.247 527.652 188.669 497.989C196.856 501.532 208.443 505.634 210.782 502.058Z" fill="#2F2E41"/>
<path d="M174.301 91.2471C171.942 130.733 118.053 127.256 117.2 91.2467C119.559 51.7616 173.448 55.2379 174.301 91.2471Z" fill="#FFB8B8"/>
<path d="M133.061 111.867C146.937 153.805 114.177 130.972 160.026 164.21L177.473 129.315C177.473 129.315 164.784 124.556 166.37 107.109L133.061 111.867Z" fill="#FFB8B8"/>
<path d="M218.713 135.659L171.431 124.867C172.76 153.376 142.335 147.638 137.027 133.297L91.8215 159.451C110.795 230.118 105.987 233.034 80.7185 278.412C71.0752 287.218 85.497 292.265 98.0521 287.446C107.628 281.536 112.491 276.284 122.752 277.62C171.237 287.716 211.6 290.099 217.988 286.154C220.274 282.883 217.922 136.227 218.713 135.659Z" fill="#575A89"/>
<path d="M206.024 138.831C207.61 138.831 215.78 134.99 215.78 134.99C239.551 134.589 255.503 294.486 256.78 299.032L240.919 310.135L215.541 245.103L206.024 138.831Z" fill="#575A89"/>
<path d="M94.9939 324.41C95.8049 330.396 97.185 397.62 121.266 366.218C124.426 343.308 113.684 336.469 110.855 321.238L94.9939 324.41Z" fill="#FFB8B8"/>
<path d="M101.338 159.451L96.4785 156.757C83.4492 156.329 87.5555 190.818 82.0431 216.076C77.5397 245.5 78.8219 277.946 84.1054 321.323C84.5675 337.241 113.078 327.213 117.2 325.996C117.2 325.996 107.683 260.964 112.441 249.861C117.2 238.758 101.338 159.451 101.338 159.451Z" fill="#575A89"/>
<path d="M173.053 63.5698C168.648 56.417 161.754 51.1462 153.696 48.7718L147.778 53.5063L150.079 47.984C148.144 47.6888 146.185 47.5756 144.229 47.6459L138.904 54.4923L141.108 47.8805C118.259 50.3339 104.741 76.5637 116.603 94.9213C118.433 89.2981 120.653 84.0216 122.483 78.3983C123.921 78.5943 125.379 78.6014 126.819 78.4194L129.045 73.2249L129.667 78.1997C136.567 77.5985 146.802 76.2787 153.343 75.0694L152.707 71.253L156.513 74.4244C158.517 73.963 159.707 73.5447 159.609 73.2249C164.474 81.0681 169.295 86.0777 174.16 93.9208C176.006 82.8578 179.267 73.6618 173.053 63.5698Z" fill="#2F2E41"/>
<path d="M665.779 343.979H527.412V409.615H665.779V343.979Z" fill="white"/>
<path d="M639.614 357.727H553.578V365.597H639.614V357.727Z" fill="#E6E6E6"/>
<path d="M639.614 372.862H553.578V380.732H639.614V372.862Z" fill="#E6E6E6"/>
<path d="M639.614 387.997H553.578V395.867H639.614V387.997Z" fill="#E6E6E6"/>
<path d="M406.916 359.57L402.415 351.775L397.915 343.979L393.414 351.775L388.913 359.57H393.749V382.144H402.08V359.57H406.916Z" fill="white"/>
<path d="M711.888 520.193C732.356 520.193 748.948 503.601 748.948 483.133C748.948 462.665 732.356 446.073 711.888 446.073C691.42 446.073 674.828 462.665 674.828 483.133C674.828 503.601 691.42 520.193 711.888 520.193Z" fill="#3F3D56"/>
<path d="M718.626 499.557C727.697 499.557 735.051 492.204 735.051 483.133C735.051 474.062 727.697 466.709 718.626 466.709C709.555 466.709 702.202 474.062 702.202 483.133C702.202 492.204 709.555 499.557 718.626 499.557Z" fill="#E6E6E6"/>
<path d="M688.515 509.033L769.374 542.724L766.847 550.726L720.311 545.461L641.558 510.507L685.356 515.561L688.515 509.033Z" fill="#3F3D56"/>
<path d="M759.99 541.206L860.554 211.319L885.045 167.828L885.131 167.409C885.21 167.025 887.008 157.934 882.585 151.351C881.47 149.715 880.03 148.326 878.354 147.27C876.679 146.215 874.804 145.516 872.846 145.217C859.33 142.683 829.092 141.434 827.812 141.382L827.571 141.372L827.331 141.405C826.505 141.517 807.181 144.342 802.812 161.217L781.788 199.481L781.705 199.753L686.528 512.658L691.766 514.252L786.86 201.618L807.955 163.226L808.04 162.873C811.129 150.174 825.897 147.204 827.862 146.864C830.951 146.995 859.37 148.26 871.837 150.598C873.075 150.767 874.264 151.19 875.33 151.843C876.396 152.495 877.315 153.361 878.028 154.387C880.754 158.423 880.072 164.365 879.832 165.928L855.492 209.152L855.405 209.437L754.753 539.61L759.99 541.206Z" fill="#3F3D56"/>
<path d="M774.693 231.117L773.72 236.505L846.351 249.623L847.324 244.235L774.693 231.117Z" fill="#3F3D56"/>
<path d="M761.129 275.923L760.034 281.287L832.146 296.005L833.241 290.64L761.129 275.923Z" fill="#3F3D56"/>
<path d="M736.976 356.055L735.47 361.319L805.874 381.464L807.38 376.201L736.976 356.055Z" fill="#3F3D56"/>
<path d="M784.589 511.372L786.585 506.273L718.249 479.515L714.893 443.181L778.675 467.004L799.338 496.902L803.843 493.79L782.201 462.476L708.64 435L713.108 483.382L784.589 511.372Z" fill="#3F3D56"/>
<path d="M808.329 555.569C828.796 555.569 845.389 538.976 845.389 518.509C845.389 498.041 828.796 481.448 808.329 481.448C787.861 481.448 771.269 498.041 771.269 518.509C771.269 538.976 787.861 555.569 808.329 555.569Z" fill="#3F3D56"/>
<path d="M818.015 536.618C827.086 536.618 834.439 529.264 834.439 520.193C834.439 511.122 827.086 503.769 818.015 503.769C808.944 503.769 801.591 511.122 801.591 520.193C801.591 529.264 808.944 536.618 818.015 536.618Z" fill="#E6E6E6"/>
</g>
<defs>
<clipPath id="clip0_165_152">
<rect width="885.558" height="557.519" fill="white"/>
</clipPath>
</defs>
</svg>
